<svg class="img-fluid" id="outputsvg" xmlns="http://www.w3.org/2000/svg" style="/* transform: matrix(2.23195, 0, 0, 2.23195, 5.9829, 19.4089); *//* transform-origin: 50% 50%; *//* cursor: move; *//* max-height: none; *//* transition: transform 200ms ease-in-out; */" width="1200" height="1200" viewBox="0 0 12000 12000"><g id="l4Kw04PJtDLgq3rloAoaKuy" fill="rgb(0,0,0)" style="transform: none;"><g style="transform: none;"><path id="pW46CG7Ao" d="M 4270 7475 c -42 -8 -105 -24 -140 -37 -51 -18 -66 -28 -68 -46 -5 -33 16 -35 114 -13 190 44 366 52 551 26 155 -22 213 -38 538 -145 331 -109 419 -134 563 -155 243 -37 406 -8 892 155 408 137 558 167 808 158 99 -4 170 -13 255 -32 93 -21 121 -25 133 -15 20 16 18 26 -11 45 -60 39 -202 66 -380 71 -279 9 -378 -10 -845 -167 -401 -134 -454 -145 -700 -144 -193 0 -197 0 -335 37 -77 21 -219 65 -315 98 -427 149 -526 171 -790 175 -139 2 -217 -1 -270 -11 z "/><path id="pQIAG65nF" d="M 4180 7145 c -57 -14 -146 -39 -197 -56 -109 -36 -400 -178 -427 -208 -20 -22 -16 -51 7 -51 7 0 78 33 158 73 251 127 458 184 707 194 269 10 460 -26 827 -157 414 -148 542 -175 780 -167 200 7 255 20 692 166 421 141 492 156 758 156 304 0 463 -38 754 -182 173 -85 196 -92 209 -55 9 29 -253 168 -429 226 -173 58 -284 77 -476 83 -282 9 -455 -24 -825 -156 -250 -89 -452 -147 -565 -162 -119 -16 -335 -6 -436 20 -142 37 -380 112 -482 151 -122 48 -193 70 -355 110 -118 30 -138 32 -360 36 -224 4 -240 3 -340 -21 z "/><path id="pRX95jQ72" d="M 4244 6829 c -227 -47 -443 -147 -655 -301 -37 -26 -72 -48 -79 -48 -7 0 -37 16 -67 36 -162 107 -318 131 -418 63 -96 -67 -103 -191 -15 -279 88 -88 239 -78 416 30 36 22 75 40 87 40 13 0 99 -78 246 -223 428 -422 494 -478 608 -518 140 -48 229 -15 412 153 47 43 92 77 100 76 8 -2 91 -102 185 -223 97 -125 218 -268 281 -331 94 -95 123 -117 196 -153 199 -99 345 -56 566 166 61 62 117 113 123 113 7 0 53 -39 103 -87 119 -111 194 -167 287 -212 71 -34 81 -36 175 -36 92 0 105 3 170 33 89 43 223 176 350 351 248 341 298 407 404 541 64 80 165 196 225 258 116 120 283 262 308 262 8 0 61 -30 118 -66 240 -155 400 -195 537 -134 89 39 142 113 143 197 0 57 -14 91 -58 136 -75 78 -184 113 -321 104 -103 -7 -193 -33 -318 -93 -51 -24 -97 -44 -102 -44 -5 0 -56 22 -112 50 -125 61 -315 124 -441 146 -73 13 -132 15 -278 11 -234 -7 -299 -22 -721 -162 -359 -119 -453 -143 -624 -155 -232 -16 -339 5 -810 160 -165 54 -336 108 -380 119 -176 44 -481 54 -641 20 z  m 571 -79 c 63 -12 259 -70 455 -135 443 -145 498 -158 705 -159 239 -1 302 13 740 159 341 115 452 142 620 156 148 12 300 9 300 -6 0 -5 -39 -20 -87 -32 -289 -76 -569 -272 -866 -607 -122 -137 -194 -224 -341 -413 -62 -79 -111 -133 -121 -133 -10 0 -83 71 -162 158 -334 363 -591 552 -753 552 -105 0 -206 -57 -336 -192 -47 -48 -89 -88 -93 -88 -4 0 -80 75 -168 166 -172 177 -287 271 -408 333 -90 47 -213 87 -295 96 -83 9 -105 14 -105 25 0 32 258 113 455 144 72 11 353 -4 460 -24 z  m 4049 -70 c 78 -30 116 -76 116 -140 0 -41 -5 -55 -32 -86 -18 -20 -47 -43 -65 -50 -41 -18 -153 -18 -218 0 -95 25 -325 154 -325 182 0 18 122 77 200 98 86 23 257 21 324 -4 z  m -850 -25 c 85 -23 146 -51 146 -68 0 -8 -48 -59 -107 -112 -60 -54 -148 -141 -197 -194 -160 -173 -228 -260 -596 -762 -120 -163 -223 -273 -295 -315 -45 -26 -61 -29 -157 -33 -97 -3 -111 -1 -162 22 -30 14 -77 40 -103 58 -66 45 -263 239 -263 258 0 19 229 315 377 488 150 175 382 397 493 472 144 96 261 152 403 191 62 17 94 20 237 16 109 -3 185 -10 224 -21 z  m -4733 -130 c 24 -9 68 -30 97 -48 72 -43 67 -60 -28 -108 -160 -82 -276 -74 -326 23 -24 46 -2 105 51 136 29 17 155 15 206 -3 z  m 760 0 c 170 -19 390 -154 591 -364 126 -131 178 -197 178 -226 0 -30 -93 -132 -173 -191 -111 -82 -227 -81 -352 4 -65 44 -650 607 -684 659 -21 31 -4 46 89 82 118 46 188 53 351 36 z  m 1391 -339 c 125 -51 358 -254 610 -530 101 -111 108 -121 108 -160 0 -39 -5 -46 -107 -146 -60 -58 -132 -118 -163 -135 -51 -28 -62 -30 -160 -30 -100 0 -108 1 -168 34 -119 65 -225 179 -491 530 -72 95 -131 182 -131 193 0 28 194 219 250 246 64 31 174 30 252 -2 z "/><path id="pxDFbryJR" d="M4909.544320722364 4838.6401257320442 C 4909.544320722364 5020.3081049926365 4762.273325448202 5167.5791002667982 4580.60534618761 5167.5791002667982 4398.9373669270178 5167.5791002667982 4251.666371652856 5020.3081049926365 4251.666371652856 4838.6401257320442 4251.666371652856 4656.972146471452 4398.9373669270178 4509.70115119729036 4580.60534618761 4509.70115119729036 4762.273325448202 4509.70115119729036 4909.544320722364 4656.972146471452 4909.544320722364 4838.6401257320442 Z M4495.0 5160.0  M4840.1588479805391 4837.51483331557944 C 4840.1588479805391 4694.03087230762196 4723.8421155022763 4577.71413982935917 4580.3581544943188 4577.71413982935917 4436.8741934863613 4577.71413982935917 4320.5574610080985 4694.03087230762196 4320.5574610080985 4837.51483331557944 4320.5574610080985 4980.9987943235369 4436.8741934863613 5097.3155268017997 4580.3581544943188 5097.3155268017997 4723.8421155022763 5097.3155268017997 4840.1588479805391 4980.9987943235369 4840.1588479805391 4837.51483331557944 Z M4698.0 5071.0 "/></g></g></svg>